<?xml version="1.0" standalone="no"?>
<!DOCTYPE svg PUBLIC "-//W3C//DTD SVG 20010904//EN"
 "http://www.w3.org/TR/2001/REC-SVG-20010904/DTD/svg10.dtd">
<svg version="1.0" xmlns="http://www.w3.org/2000/svg"
 width="700.000000pt" height="700.000000pt" viewBox="0 0 700.000000 700.000000"
 preserveAspectRatio="xMidYMid meet">
<metadata>
Created by potrace 1.11, written by Peter Selinger 2001-2013
</metadata>
<g transform="translate(0.000000,700.000000) scale(0.100000,-0.100000)"
fill="#000000" stroke="none">
<path d="M1820 3477 c-623 -1871 -1135 -3408 -1138 -3414 -3 -10 122 -13 604
-13 l609 0 555 1668 c305 917 555 1669 556 1672 0 3 3 12 7 20 11 29 149 445
152 460 2 8 4 15 4 15 1 0 88 261 195 580 156 467 195 576 203 560 6 -11 40
-112 77 -225 37 -113 71 -214 76 -225 5 -11 77 -227 160 -480 83 -253 155
-469 160 -480 5 -11 41 -119 80 -240 39 -121 75 -229 80 -240 5 -11 237 -708
517 -1550 l508 -1530 608 -3 c334 -1 607 -1 607 1 0 1 -484 1456 -1076 3232
-592 1777 -1077 3235 -1078 3240 -1 6 -4 15 -7 20 -3 6 -29 83 -59 172 l-53
162 -607 0 -606 0 -1134 -3402z"/>
</g>
</svg>
